<svg xmlns="http://www.w3.org/2000/svg" xmlns:xlink="http://www.w3.org/1999/xlink" xmlns:fi="http://pattern.flaticon.com/" x="0" y="0" width="700" height="350" viewBox="0 0 700 350"><rect x="0px" y="0px" width="100%" height="100%" opacity="0" fill="#fbfffc"/><defs><path d="m500.746094 334.121094c-14.71875-32.480469-42-55.453125-76.820313-64.695313-45.652343-12.117187-99.722656-1.964843-143.582031 24.78125-19.308594-12.71875-42.03125-19.597656-65.398438-19.597656-20.625 0-40.789062 5.375-58.527343 15.398437-1.363281-53.328124 10.605469-134.566406 16.007812-168.117187l66.660157 14.179687 61.820312-25.757812c9.542969-3.976562 16.457031-12.007812 18.964844-22.039062 2.511718-10.03125.195312-20.371094-6.351563-28.371094l-49.011719-59.902344h-153.785156l-35.074218 91.042969c-52.527344 104.238281-74.273438 264.261719-75.6367192 340.816406-.3749998 21.183594 7.5937502 41.175781 22.4453122 56.292969 14.859375 15.125 34.722657 23.457031 55.929688 23.457031h124.230469c18.550781 0 36.835937-4.347656 53.300781-12.605469 5.101562.800782 10.394531 1.671875 15.921875 2.578125 28.957031 4.746094 63.546875 10.417969 96.972656 10.417969 8.535156 0 17-.371094 25.265625-1.21875 49.867187-5.125 84.773437-27.125 103.746094-65.386719 17.714843-35.726562 18.78125-76.285156 2.921875-111.273437zm-29.800782 97.945312c-14.492187 29.226563-39.890624 44.757813-79.933593 48.871094-32.488281 3.335938-68.566407-1.589844-101.675781-6.90625 5.734374-6.109375 10.839843-12.816406 15.183593-20.023438 6.578125-10.910156 11.328125-22.730468 14.113281-35.136718l-29.269531-6.578125c-2.082031 9.257812-5.625 18.082031-10.535156 26.230469-16.265625 26.976562-44.753906 43.085937-76.210937 43.085937h-124.230469c-13.09375 0-25.355469-5.144531-34.527344-14.480469-9.164063-9.328125-14.082031-21.664062-13.851563-34.734375 1.320313-74.0625 22.234376-228.730469 72.75-328.480469l.34375-.679687 28.214844-73.234375h118.976563l40.007812 48.898438c.503907.617187.660157 1.320312.46875 2.09375-.195312.773437-.664062 1.320312-1.402343 1.628906l-53.1875 22.160156-88.019532-18.730469-2.71875 15.273438c-1.113281 6.265625-27.175781 154.1875-16.515625 218.972656l4.449219 27.03125 24.042969-21.601563c16.035156-13.617187 36.457031-21.117187 57.527343-21.117187 13.578126 0 26.859376 3.117187 38.878907 8.957031-3.902344 3.398438-7.683594 6.929688-11.277344 10.632813l21.523437 20.898437c38.941407-40.109375 102.933594-59.746094 152.160157-46.675781 25.949219 6.886719 46.261719 23.960937 57.191406 48.078125 11.945313 26.363281 11.019531 58.347656-2.476563 85.566406zm0 0" transform="matrix(0.1171875 0 0 0.1171875 225.00000001464844 1.4648435353592504e-8)" id="L1_0"/><g transform="matrix(0.1171875 0 0 0.1171875 67.00000002929687 131)" id="L1_1"><path d="m373.835938 377.304688-65.597657-240.570313 49.230469-56.75c8.394531-9.675781 12.515625-22.042969 11.609375-34.820313-.90625-12.777343-6.734375-24.4375-16.410156-32.832031s-22.054688-12.523437-34.820313-11.609375c-12.777344.90625-24.4375 6.734375-32.832031 16.410156l-25.875 29.828126c-8.324219-27.15625-33.625-46.960938-63.472656-46.960938-29.847657 0-55.152344 19.804688-63.472657 46.960938l-25.875-29.828126c-8.394531-9.675781-20.054687-15.503906-32.832031-16.410156-12.765625-.90625-25.144531 3.214844-34.820312 11.609375-9.679688 8.394531-15.507813 20.054688-16.410157 32.832031-.910156 12.777344 3.214844 25.144532 11.609376 34.820313l49.230468 56.75-65.601562 240.570313h91.460937v83.433593c0 28.039063 22.8125 50.855469 50.855469 50.855469 13.976562 0 26.652344-5.671875 35.851562-14.828125 9.203126 9.15625 21.878907 14.828125 35.855469 14.828125 28.042969 0 50.855469-22.816406 50.855469-50.855469v-83.433593zm-39.273438-30h-52.1875l.085938-180.855469 2.117187-2.441407zm-175.273438-280.925782c0-20.058594 16.320313-36.378906 36.378907-36.378906 20.058593 0 36.375 16.320312 36.375 36.378906 0 5.839844-1.390625 11.359375-3.847657 16.253906l-11.820312 13.628907c-5.882812 4.085937-13.019531 6.492187-20.707031 6.492187-7.691407 0-14.824219-2.40625-20.707031-6.492187l-11.820313-13.628907c-2.457031-4.894531-3.851563-10.414062-3.851563-16.253906zm-107.109374-19.089844c.339843-4.785156 2.523437-9.152343 6.144531-12.296874 3.296875-2.855469 7.421875-4.390626 11.742187-4.390626.429688 0 .863282.011719 1.296875.042969 4.785157.339844 9.152344 2.523438 12.292969 6.144531l54.777344 63.144532c4.136718 7.035156 9.535156 13.238281 15.882812 18.308594l12.585938 14.511718h57.527344l12.589843-14.511718c6.347657-5.070313 11.742188-11.273438 15.882813-18.308594l54.777344-63.144532c3.140624-3.621093 7.507812-5.804687 12.292968-6.144531 4.796875-.339843 9.414063 1.207031 13.035156 4.347657 3.625 3.144531 5.808594 7.511718 6.144532 12.292968.339844 4.785156-1.203125 9.417969-4.347656 13.039063l-82.34375 94.921875v79.78125h-113.503907v-79.679688l-82.429687-95.023437c-3.140625-3.621094-4.6875-8.253907-4.347656-13.035157zm4.59375 300.015626 49.980468-183.296876 2.203125 2.539063v180.757813zm174.746093 134.289062c-11.496093 0-20.851562-9.355469-20.851562-20.855469v-148.507812h-30v148.503906c0 11.5-9.355469 20.855469-20.855469 20.855469s-20.851562-9.355469-20.851562-20.855469v-195.703125h113.417968v195.707031c-.003906 11.496094-9.359375 20.855469-20.859375 20.855469zm0 0"/><path d="m0 403.941406h30v51.058594h-30zm0 0"/><path d="m0 472.332031h30v28.667969h-30zm0 0"/><path d="m55.335938 403.941406h30v62.058594h-30zm0 0"/><path d="m55.335938 483.332031h30v28.667969h-30zm0 0"/><path d="m361.335938 403.941406h30v51.058594h-30zm0 0"/><path d="m361.335938 472.332031h30v28.667969h-30zm0 0"/><path d="m306 403.941406h30v62.058594h-30zm0 0"/><path d="m306 483.332031h30v28.667969h-30zm0 0"/></g><g transform="matrix(0.1171875 0 0 0.1171875 224.00000001464844 245)" id="L1_2"><path d="m332.46875 0h-158.894531l-131.34375 293.59375h135.957031l-77.914062 218.40625h55.75l252.582031-325.046875h-160.4375zm14.832031 216.953125-203.214843 261.515625 76.652343-214.875h-132.222656l104.503906-233.59375h93.011719l-84.296875 186.953125zm0 0"/><path d="m31.972656 53.964844h29.402344v29.402344h-29.402344zm0 0"/><path d="m31.972656 116.910156h29.402344v29.402344h-29.402344zm0 0"/><path d="m.5 85.4375h29.402344v29.402344h-29.402344zm0 0"/><path d="m63.449219 85.4375h29.398437v29.402344h-29.398437zm0 0"/><path d="m376.980469 62.023438h29.402343v29.402343h-29.402343zm0 0"/><path d="m376.980469 124.972656h29.402343v29.398438h-29.402343zm0 0"/><path d="m345.507812 93.496094h29.398438v29.402344h-29.398438zm0 0"/><path d="m408.453125 93.496094h29.402344v29.402344h-29.402344zm0 0"/><path d="m345.507812 379.125h29.398438v29.402344h-29.398438zm0 0"/><path d="m345.507812 442.070312h29.398438v29.402344h-29.398438zm0 0"/><path d="m314.03125 410.597656h29.402344v29.402344h-29.402344zm0 0"/><path d="m376.980469 410.597656h29.402343v29.402344h-29.402343zm0 0"/></g><g transform="matrix(0.1171875 0 0 0.1171875 60.999999985351565 257.00000001464844)" id="L1_3"><path d="m432.964844 188.460938h-39.875v-9.347657c0-43.960937-35.769532-79.726562-79.730469-79.726562h-4.914063c5.359376-9.066407 8.449219-19.625 8.449219-30.898438 0-33.578125-27.316406-60.894531-60.894531-60.894531s-60.894531 27.316406-60.894531 60.894531c0 11.273438 3.089843 21.832031 8.449219 30.898438h-4.914063c-43.960937 0-79.730469 35.765625-79.730469 79.726562v9.347657h-39.875c-23.886718 0-43.324218 19.433593-43.324218 43.324218s19.4375 43.328125 43.324218 43.328125h97.90625v145.664063c0 25.933594 21.097656 47.03125 47.027344 47.03125 12.367188 0 23.628906-4.804688 32.03125-12.636719 8.402344 7.832031 19.664062 12.636719 32.03125 12.636719 25.929688 0 47.027344-21.097656 47.027344-47.03125v-145.664063h97.90625c23.886718 0 43.324218-19.4375 43.324218-43.328125s-19.433593-43.324218-43.324218-43.324218zm-176.964844-150.867188c17.035156 0 30.894531 13.859375 30.894531 30.894531 0 17.035157-13.859375 30.898438-30.894531 30.898438s-30.894531-13.863281-30.894531-30.898438c0-17.035156 13.859375-30.894531 30.894531-30.894531zm-107.089844 180.867188v-39.347657c0-27.417969 22.308594-49.726562 49.730469-49.726562h114.71875c27.417969 0 49.726563 22.308593 49.726563 49.726562v39.347657h20.914062v26.652343h-48.863281v-76.058593h-30v46.640624l-98.195313 1.820313v-48.375h-30v75.972656h-48.941406v-26.652343zm-83.199218 13.324218c0-7.347656 5.976562-13.324218 13.324218-13.324218h18.964844v26.652343h-18.964844c-7.347656 0-13.324218-5.980469-13.324218-13.328125zm222.320312 206.023438c-9.390625 0-17.03125-7.640625-17.03125-17.03125v-132.664063h-30v132.664063c0 9.390625-7.640625 17.03125-17.03125 17.03125s-17.027344-7.640625-17.027344-17.03125v-173.253906l98.117188-1.824219v175.078125c0 9.390625-7.636719 17.03125-17.027344 17.03125zm144.933594-192.695313h-18.964844v-26.652343h18.964844c7.347656 0 13.324218 5.976562 13.324218 13.324218s-5.976562 13.328125-13.324218 13.328125zm0 0"/><path d="m505.457031 75.054688-4.015625-8.738282h-19.503906v-29.152344l-3.085938-4.03125c-8.992187-11.765624-16.414062-20.148437-16.726562-20.496093l-11.21875-12.636719-11.214844 12.632812c-.496094.554688-12.191406 13.769532-24.046875 30.390626-17.382812 24.378906-25.832031 43.003906-25.832031 56.9375 0 33.6875 27.40625 61.09375 61.09375 61.09375s61.09375-27.40625 61.09375-61.09375c0-7.183594-2.140625-15.328126-6.542969-24.90625zm-54.550781 56.003906c-17.144531 0-31.09375-13.949219-31.09375-31.09375 0-9.929688 14.613281-33.25 31.042969-53.960938.355469.449219.714843.90625 1.082031 1.371094v48.945312h29.5c.476562 1.882813.5625 3.046876.5625 3.644532 0 17.144531-13.949219 31.09375-31.09375 31.09375zm0 0"/><path d="m122.1875 99.964844c0-13.9375-8.449219-32.5625-25.832031-56.941406-11.855469-16.621094-23.550781-29.835938-24.046875-30.390626l-11.214844-12.632812-11.21875 12.636719c-.3125.347656-7.734375 8.730469-16.726562 20.496093l-3.085938 4.03125v29.152344h-19.503906l-4.015625 8.738282c-4.402344 9.578124-6.542969 17.722656-6.542969 24.910156 0 33.6875 27.40625 61.09375 61.09375 61.09375s61.09375-27.410156 61.09375-61.09375zm-92.1875 0c0-.597656.085938-1.761719.558594-3.644532h29.503906v-48.945312c.363281-.464844.726562-.921875 1.082031-1.371094 16.429688 20.710938 31.042969 44.03125 31.042969 53.960938 0 17.144531-13.949219 31.09375-31.09375 31.09375s-31.09375-13.949219-31.09375-31.09375zm0 0"/></g><g transform="matrix(0.1171872690320015 0 0 0.1171872690320015 65 11)" id="L1_4"><path d="m434.066406 98.242188c-42.074218-14.671876-75.328125-46.972657-91.226562-88.625l-3.671875-9.617188h-234.242188l-3.671875 9.613281c-15.898437 41.65625-49.152344 73.957031-91.226562 88.628907l-10.027344 3.492187v69.425781c0 68.125 18.726562 134.894532 54.152344 193.089844 35.425781 58.191406 86.136718 105.488281 146.65625 136.773438l21.238281 10.976562 21.238281-10.976562c60.515625-31.289063 111.230469-78.582032 146.65625-136.777344 35.425782-58.191406 54.152344-124.960938 54.152344-193.089844v-69.421875zm-19.863281 72.914062c0 128.214844-70.753906 244.433594-184.644531 303.3125l-7.511719 3.882812-7.511719-3.882812c-113.890625-58.875-184.644531-175.097656-184.644531-303.3125v-48.519531c42.46875-17.675781 76.457031-50.753907 95.300781-92.746094h193.710938c18.839844 41.992187 52.832031 75.066406 95.296875 92.742187v48.523438zm0 0"/><path d="m304.332031 63.410156-4.347656-7.285156h-155.875l-4.347656 7.285156c-19.507813 32.667969-34.875 50.5-74.378907 69.816406l-8.378906 4.097657v51.945312l.023438.847657c2.8125 49.570312 17.140625 97.496093 41.4375 138.585937 25.484375 43.097656 62.105468 78.742187 105.90625 103.082031l17.675781 9.144532 17.28125-8.933594.394531-.210938c43.800782-24.339844 80.421875-59.984375 105.90625-103.082031 24.292969-41.089844 38.625-89.015625 41.4375-138.585937l.023438-52.792969-8.382813-4.097657c-39.5-19.316406-54.867187-37.152343-74.375-69.816406zm-82.285156 207.570313c-21.421875 0-38.847656-17.425781-38.847656-38.847657 0-21.417968 17.429687-38.84375 38.847656-38.84375s38.84375 17.425782 38.84375 38.84375c0 21.421876-17.425781 38.847657-38.84375 38.847657zm-135.152344-82.140625v-33.019532c36.941407-19.5 55.382813-39.796874 74.089844-69.804687h46.117187v79.039063c-30.734374 6.84375-53.789062 34.3125-53.789062 67.078124 0 32.769532 23.054688 60.238282 53.789062 67.082032v99.453125c-70.472656-44.386719-115.082031-121.796875-120.207031-209.828125zm270.304688 0c-5.125 88.03125-49.734375 165.441406-120.207031 209.828125v-99.453125c30.738281-6.84375 53.792968-34.3125 53.792968-67.082032 0-32.765624-23.058594-60.234374-53.792968-67.078124v-79.039063h46.117187c18.707031 30.007813 37.148437 50.304687 74.089844 69.804687zm0 0"/></g><path d="m512 0-138.1875 12.234375-251.25 251.25-24.15625-24.160156-56.859375 82.441406 33.542969 33.542969-58.214844 58.21875c-22.5 22.496094-22.5 59.101562 0 81.601562 11.246094 11.25 26.019531 16.875 40.796875 16.871094 14.773437 0 29.554687-5.625 40.800781-16.871094l58.21875-58.21875 33.539063 33.542969 82.445312-56.859375-24.160156-24.160156 251.246094-251.246094zm-434.746094 473.90625c-10.796875 10.796875-28.363281 10.796875-39.160156 0s-10.796875-28.363281 0-39.160156l58.214844-58.21875 39.160156 39.160156zm3.191406-155.683594 22.210938-32.207031 123.324219 123.324219-32.207031 22.214844zm390.386719-193.542968-243.535156 243.535156-31.148437-31.144532 170.757812-170.757812-21.21875-21.21875-170.757812 170.753906-31.144532-31.144531 243.535156-243.535156 91.625-8.113281zm0 0" transform="matrix(0.1171875 0 0 0.1171875 228 138)" id="L1_5"/></defs><g fi:class="KUsePattern"><pattern id="pattern_L1_0" width="350" height="350" patternUnits="userSpaceOnUse"><use xlink:href="#L1_0" x="-350" y="-350"/><use xlink:href="#L1_0" x="0" y="-350"/><use xlink:href="#L1_0" x="350" y="-350"/><use xlink:href="#L1_0" x="-350" y="0"/><use xlink:href="#L1_0" x="0" y="0"/><use xlink:href="#L1_0" x="350" y="0"/><use xlink:href="#L1_0" x="-350" y="350"/><use xlink:href="#L1_0" x="0" y="350"/><use xlink:href="#L1_0" x="350" y="350"/></pattern><rect x="0" y="0" width="100%" height="100%" fill="url(#pattern_L1_0)"/></g><g fi:class="KUsePattern"><pattern id="pattern_L1_1" width="350" height="350" patternUnits="userSpaceOnUse"><use xlink:href="#L1_1" x="-350" y="-350"/><use xlink:href="#L1_1" x="0" y="-350"/><use xlink:href="#L1_1" x="350" y="-350"/><use xlink:href="#L1_1" x="-350" y="0"/><use xlink:href="#L1_1" x="0" y="0"/><use xlink:href="#L1_1" x="350" y="0"/><use xlink:href="#L1_1" x="-350" y="350"/><use xlink:href="#L1_1" x="0" y="350"/><use xlink:href="#L1_1" x="350" y="350"/></pattern><rect x="0" y="0" width="100%" height="100%" fill="url(#pattern_L1_1)"/></g><g fi:class="KUsePattern"><pattern id="pattern_L1_2" width="350" height="350" patternUnits="userSpaceOnUse"><use xlink:href="#L1_2" x="-350" y="-350"/><use xlink:href="#L1_2" x="0" y="-350"/><use xlink:href="#L1_2" x="350" y="-350"/><use xlink:href="#L1_2" x="-350" y="0"/><use xlink:href="#L1_2" x="0" y="0"/><use xlink:href="#L1_2" x="350" y="0"/><use xlink:href="#L1_2" x="-350" y="350"/><use xlink:href="#L1_2" x="0" y="350"/><use xlink:href="#L1_2" x="350" y="350"/></pattern><rect x="0" y="0" width="100%" height="100%" fill="url(#pattern_L1_2)"/></g><g fi:class="KUsePattern"><pattern id="pattern_L1_3" width="350" height="350" patternUnits="userSpaceOnUse"><use xlink:href="#L1_3" x="-350" y="-350"/><use xlink:href="#L1_3" x="0" y="-350"/><use xlink:href="#L1_3" x="350" y="-350"/><use xlink:href="#L1_3" x="-350" y="0"/><use xlink:href="#L1_3" x="0" y="0"/><use xlink:href="#L1_3" x="350" y="0"/><use xlink:href="#L1_3" x="-350" y="350"/><use xlink:href="#L1_3" x="0" y="350"/><use xlink:href="#L1_3" x="350" y="350"/></pattern><rect x="0" y="0" width="100%" height="100%" fill="url(#pattern_L1_3)"/></g><g fi:class="KUsePattern"><pattern id="pattern_L1_4" width="350" height="350" patternUnits="userSpaceOnUse"><use xlink:href="#L1_4" x="-350" y="-350"/><use xlink:href="#L1_4" x="0" y="-350"/><use xlink:href="#L1_4" x="350" y="-350"/><use xlink:href="#L1_4" x="-350" y="0"/><use xlink:href="#L1_4" x="0" y="0"/><use xlink:href="#L1_4" x="350" y="0"/><use xlink:href="#L1_4" x="-350" y="350"/><use xlink:href="#L1_4" x="0" y="350"/><use xlink:href="#L1_4" x="350" y="350"/></pattern><rect x="0" y="0" width="100%" height="100%" fill="url(#pattern_L1_4)"/></g><g fi:class="KUsePattern"><pattern id="pattern_L1_5" width="350" height="350" patternUnits="userSpaceOnUse"><use xlink:href="#L1_5" x="-350" y="-350"/><use xlink:href="#L1_5" x="0" y="-350"/><use xlink:href="#L1_5" x="350" y="-350"/><use xlink:href="#L1_5" x="-350" y="0"/><use xlink:href="#L1_5" x="0" y="0"/><use xlink:href="#L1_5" x="350" y="0"/><use xlink:href="#L1_5" x="-350" y="350"/><use xlink:href="#L1_5" x="0" y="350"/><use xlink:href="#L1_5" x="350" y="350"/></pattern><rect x="0" y="0" width="100%" height="100%" fill="url(#pattern_L1_5)"/></g></svg>