<svg height="512pt" viewBox="-49 0 512 512.001" width="512pt" xmlns="http://www.w3.org/2000/svg"><path d="m227.566406 255.683594c-3.589844-2.0625-8.175781-.828125-10.242187 2.761718-2.105469 3.667969-6.035157 5.941407-10.253907 5.941407-4.222656 0-8.152343-2.277344-10.257812-5.941407-2.066406-3.589843-6.648438-4.828124-10.238281-2.761718-3.59375 2.0625-4.832031 6.648437-2.765625 10.238281 4.773437 8.304687 13.6875 13.464844 23.261718 13.464844 9.570313 0 18.484376-5.15625 23.257813-13.460938 2.0625-3.59375.828125-8.179687-2.761719-10.242187zm0 0"/><path d="m273.757812 203.753906c-4.144531 0-7.5 3.359375-7.5 7.5v11.355469c0 4.144531 3.355469 7.5 7.5 7.5 4.140626 0 7.5-3.355469 7.5-7.5v-11.355469c0-4.140625-3.359374-7.5-7.5-7.5zm0 0"/><path d="m140.378906 203.753906c-4.140625 0-7.5 3.359375-7.5 7.5v11.355469c0 4.144531 3.359375 7.5 7.5 7.5s7.5-3.355469 7.5-7.5v-11.355469c0-4.140625-3.359375-7.5-7.5-7.5zm0 0"/><path d="m406.179688 113.972656c4.832031-1.886718 7.953124-6.457031 7.953124-11.644531v-89.828125c0-6.894531-5.605468-12.5-12.5-12.5h-11.523437c-5.296875 0-10.035156 3.355469-11.792969 8.351562l-15.496094 44.054688-37.246093 6.828125c-32.890625-28.546875-74.828125-44.234375-118.507813-44.234375-43.683594 0-85.617187 15.683594-118.507812 44.234375l-37.242188-6.828125-15.5-44.054688c-1.757812-4.996093-6.496094-8.351562-11.789062-8.351562h-11.527344c-6.890625 0-12.5 5.605469-12.5 12.5v89.828125c0 5.1875 3.125 9.757813 7.957031 11.644531l32.042969 12.507813c-5.289062 12.691406-9.078125 25.824219-11.328125 39.304687-17.039063 5.625-28.671875 21.511719-28.671875 39.742188 0 20.128906 14.105469 37.085937 33.421875 41.011718 4.394531 15.03125 10.683594 29.253907 18.601563 42.394532.191406.433594.421874.855468.703124 1.261718.089844.125.1875.234376.28125.351563 17.375 28.171875 42.25 51.253906 71.832032 66.414063-53.066406 29.628906-86.65625 86.082031-86.65625 147.539062 0 4.144531 3.359375 7.5 7.5 7.5h322.765625c4.140625 0 7.5-3.355469 7.5-7.5 0-48.433594-20.875-93.78125-55.710938-125.324219-.003906-.003906-.007812-.011719-.015625-.015625-.0625-.0625-.128906-.117187-.195312-.179687-.070313-.058594-.136719-.125-.207032-.183594-.0625-.054687-.121093-.113281-.1875-.167969-9.191406-8.246094-19.351562-15.53125-30.339843-21.667968 29.566406-15.152344 54.433593-38.21875 71.808593-66.375.105469-.128907.210938-.253907.304688-.390626.277344-.402343.511719-.820312.703125-1.25 7.917969-13.144531 14.210937-27.375 18.605469-42.40625 19.351562-3.910156 33.417968-20.769531 33.417968-41.011718 0-18.226563-11.628906-34.113282-28.667968-39.742188-2.25-13.476562-6.042969-26.609375-11.328125-39.304687zm-199.113282-83.972656c35.90625 0 70.527344 11.554688 99.042969 32.804688l-99.042969 18.160156-99.039062-18.160156c28.511718-21.25 63.132812-32.804688 99.039062-32.804688zm-192.066406 175.523438c0-9.078126 4.507812-17.238282 11.625-22.132813-.277344 4.136719-.433594 8.296875-.433594 12.484375 0 11.417969 1.074219 22.589844 3.109375 33.425781-8.578125-4.515625-14.300781-13.5-14.300781-23.777343zm84.074219 189.40625 57.902343 57.902343c-4.53125 6.191407-11.820312 10.003907-19.683593 10.003907-19.949219 0-36.46875 14.90625-39.035157 34.164062h-44.886718c1.90625-39.007812 18.628906-75.320312 45.703125-102.070312zm147.382812 68.542968c7.375 8.933594 18.46875 14.363282 30.382813 14.363282 11.65625 0 21.425781 8.21875 23.824218 19.164062h-187.195312c2.402344-10.945312 12.167969-19.164062 23.824219-19.164062 11.917969 0 23.011719-5.429688 30.386719-14.363282 11.039062 10.394532 25.207031 15.605469 39.390624 15.605469 14.175782 0 28.347657-5.214844 39.386719-15.605469zm57.414063-78.566406-19.785156 19.785156c-2.925782 2.925782-2.925782 7.675782 0 10.605469 1.464843 1.464844 3.386718 2.195313 5.304687 2.195313s3.839844-.730469 5.304687-2.195313l20.367188-20.367187c27.070312 26.753906 43.796875 63.074218 45.703125 102.070312h-44.886719c-2.566406-19.257812-19.089844-34.167969-39.035156-34.167969-7.863281 0-15.152344-3.808593-19.683594-10l17.644532-17.644531c2.929687-2.929688 2.929687-7.679688 0-10.609375-2.929688-2.925781-7.679688-2.925781-10.605469 0l-27.078125 27.078125c-16.570313 16.570312-43.535156 16.574219-60.105469 0l-66.75-66.75c9.734375-7.902344 20.515625-14.679688 32.195313-20.089844 20.074218 7.703125 41.855468 11.9375 64.605468 11.9375 22.753906 0 44.535156-4.234375 64.609375-11.9375 11.675781 5.410156 22.457031 12.1875 32.195313 20.089844zm-96.804688-23.152344c-57.410156 0-108.097656-29.324218-137.886718-73.773437 31.457031-20.765625 79.335937-43.570313 137.886718-43.570313 58.554688 0 106.429688 22.804688 137.886719 43.570313-29.789063 44.453125-80.476563 73.773437-137.886719 73.773437zm192.066406-156.230468c0 10.121093-5.785156 19.136718-14.285156 23.707031 2.027344-10.816407 3.097656-21.960938 3.097656-33.351563 0-4.191406-.15625-8.351562-.4375-12.484375 7.121094 4.890625 11.625 13.050781 11.625 22.128907zm-26.1875-9.644532c0 28.691406-7.328124 55.707032-20.203124 79.273438-33.25-21.863282-83.746094-45.742188-145.675782-45.742188-61.925781 0-112.421875 23.878906-145.671875 45.742188-12.878906-23.566406-20.203125-50.582032-20.203125-79.273438 0-22.234375 4.308594-43.707031 12.785156-63.945312l143.09375 55.84375c3.222657 1.257812 6.609376 1.886718 9.996094 1.886718 3.386719 0 6.773438-.628906 10-1.886718l61.726563-24.089844c3.859375-1.507812 5.765625-5.855469 4.261719-9.714844-1.507813-3.859375-5.855469-5.765625-9.714844-4.257812l-61.726563 24.089844c-2.933593 1.144531-6.160156 1.144531-9.089843 0l-187.523438-73.183594v-85.621094h7.253906l16.359375 46.488281c.890625 2.539063 3.074219 4.402344 5.71875 4.890625l161.382813 29.585938c.894531.164062 1.8125.164062 2.703125 0l161.382812-29.585938c2.648438-.488281 4.828125-2.351562 5.722657-4.890625l16.355468-46.488281h7.253906v85.621094l-99.359374 38.777344c-3.855469 1.507812-5.765626 5.855468-4.257813 9.714843 1.503906 3.855469 5.851563 5.765625 9.710937 4.257813l54.933594-21.4375c8.476563 20.238281 12.785156 41.710937 12.785156 63.945312zm0 0"/></svg>